<svg xmlns="http://www.w3.org/2000/svg" width="13" height="14" viewBox="0 0 13 14">
    <g fill="#C7C4E1" fill-rule="nonzero">
        <path d="M.292 9.172c.332-.224.81-.176 1.07.11l1.979 2.165V.657c0-.363.342-.656.763-.656.42 0 .762.293.762.656v12.687c0 .28-.206.528-.514.62a.87.87 0 0 1-.248.036.809.809 0 0 1-.6-.251L.163 10.093c-.26-.283-.203-.697.129-.92zM8.648.036a.837.837 0 0 1 .848.216l3.341 3.655c.26.284.203.697-.129.921-.33.224-.81.176-1.07-.11L9.658 2.555v10.79c0 .362-.342.656-.763.656-.42 0-.762-.294-.762-.656V.657c.002-.279.208-.528.514-.62z"/>
    </g>
</svg>
